<svg width="512" height="439" viewBox="0 0 512 439" fill="none" xmlns="http://www.w3.org/2000/svg">
<path d="M0 73.1427L73.1429 109.714V146.286H0V73.1427Z" fill="white"/>
<path d="M0 146.286H73.1429V219.428H0V146.286Z" fill="white"/>
<path d="M146.286 109.714L219.429 73.1427V146.286H146.286V109.714Z" fill="white"/>
<path d="M146.286 146.286H219.429V219.428H146.286V146.286Z" fill="white"/>
<path d="M146.286 219.428H219.429L73.1429 146.286L146.286 292.571V219.428Z" fill="white"/>
<path d="M73.1429 219.428H146.286V292.571H73.1429V219.428Z" fill="white"/>
<path d="M0 219.428H73.1429V292.571H0V219.428Z" fill="white"/>
<path d="M365.714 219.428L329.143 292.571H292.571V219.428H365.714Z" fill="white"/>
<path d="M292.571 219.428V292.571H219.429L219.429 219.428H292.571Z" fill="white"/>
<path d="M329.143 365.714L365.714 438.857H292.571V365.714H329.143Z" fill="white"/>
<path d="M292.571 365.714V438.857H219.429V365.714H292.571Z" fill="white"/>
<path d="M219.429 365.714V438.857H146.286V365.714H219.429Z" fill="white"/>
<path d="M219.429 292.571V365.714H146.286L146.286 292.571H219.429Z" fill="white"/>
<path d="M219.429 219.428L219.429 292.571H146.286V219.428H219.429Z" fill="white"/>
<path d="M512 0L475.429 73.1429H438.857V0H512Z" fill="white"/>
<path d="M438.857 0V73.1429H365.714V0H438.857Z" fill="white"/>
<path d="M475.429 146.286L512 219.429H438.857V146.286H475.429Z" fill="white"/>
<path d="M438.857 146.286V219.429L365.714 219.428L365.714 146.286H438.857Z" fill="white"/>
<path d="M365.714 146.286L365.714 219.428H292.571V146.286H365.714Z" fill="white"/>
<path d="M365.714 73.1429V109.714V146.286H292.571V73.1429H365.714Z" fill="white"/>
<path d="M365.714 0V73.1429H292.571V0H365.714Z" fill="white"/>
</svg>
